<svg xmlns="http://www.w3.org/2000/svg" viewBox="0 0 367.65 356.25"><defs><style>.cls-1{fill:#00b2e1;}.cls-2{fill:#141a21;}</style></defs><title>Asset 1</title><g id="Layer_2" data-name="Layer 2"><g id="Layer_1-2" data-name="Layer 1"><path class="cls-1" d="M256.55,105,198.82,5.07A10.14,10.14,0,0,0,190,0H170a10.14,10.14,0,0,0-8.79,5.07L103.45,105a10.17,10.17,0,0,0,0,10.15l10,17.36a10.13,10.13,0,0,0,8.79,5.08H237.72a10.14,10.14,0,0,0,8.79-5.07l10-17.37a10.17,10.17,0,0,0,0-10.15m-49,9.65a91.91,91.91,0,0,1-55.06,0,20.76,20.76,0,0,1-14.25-23.94,91.41,91.41,0,0,1,27.6-48.46,20.91,20.91,0,0,1,28.34,0,91.37,91.37,0,0,1,27.62,48.45,20.79,20.79,0,0,1-14.25,24"/><path class="cls-1" d="M208.66,331a9.29,9.29,0,0,0-6.73,3,11.76,11.76,0,0,0-2.81,7.41,32.52,32.52,0,0,0,0,4.74,11.54,11.54,0,0,0,2.81,7.14,9.74,9.74,0,0,0,6.73,3c2,0,19.47,0,19.47,0V351H208.87a5,5,0,0,1-4.75-4.82,25.42,25.42,0,0,1,0-4.7c.24-2.67,2.39-5.22,4.76-5.32.85-.05,19.26,0,19.26,0V331s-18.24,0-19.47,0"/><polygon class="cls-1" points="165.92 331.37 165.92 336.57 177.77 336.57 177.77 356.25 182.77 356.25 182.77 336.57 194.61 336.57 194.61 331.37 165.92 331.37"/><path class="cls-1" d="M157.92,334a10.49,10.49,0,0,0-6.74-3c-1.67-.1-8.22-.07-9.76,0a8.09,8.09,0,0,0-4.52,1.38s0,0,0,0V322.9h-5v33.35h5s-.09-13.64,0-15.13a5.19,5.19,0,0,1,4.56-4.95c2-.16,7.87-.13,9.7,0a5,5,0,0,1,4.56,5.05c.06,1,0,15,0,15h5s0-13.95,0-15.15a10.24,10.24,0,0,0-2.79-7.13"/><path class="cls-2" d="M137.39,207a3.37,3.37,0,0,0-2.37-1h-5.21a4,4,0,0,0-3.49,2l-3.71,6.45a3.73,3.73,0,0,0-.51,1.9v68.72a3.33,3.33,0,0,0,3.34,3.34h9.62a3.31,3.31,0,0,0,3.31-3.31V209.35a3.38,3.38,0,0,0-1-2.37"/><path class="cls-2" d="M260.06,218.09l-34.85,68.55a3.29,3.29,0,0,1-3,1.79H210.77a3.32,3.32,0,0,1-2.94-1.79L173,218.09a3.8,3.8,0,0,1,.08-3.63L176.8,208a4.06,4.06,0,0,1,3.51-2h3.37a2.32,2.32,0,0,1,2.08,1.29L215,265.55a1.66,1.66,0,0,0,3,0l29.27-58.25a2.3,2.3,0,0,1,2.09-1.29h3.36a4,4,0,0,1,3.5,2l3.73,6.45a3.76,3.76,0,0,1,.1,3.61"/><path class="cls-2" d="M298.91,208a4,4,0,0,1,3.49-2h49.9a4,4,0,0,1,3.42,2l3.52,6.05a5.68,5.68,0,0,1,.76,2.85v1.5a2.27,2.27,0,0,1-2.27,2.26H312.24a1.67,1.67,0,0,0-1.66,1.67v15.78a1.66,1.66,0,0,0,1.66,1.66h30.83a2.74,2.74,0,0,1,2.71,2.74v9.06a2.74,2.74,0,0,1-2.73,2.74H312.24a1.66,1.66,0,0,0-1.66,1.66v16.21a1.66,1.66,0,0,0,1.66,1.66h45.49a2.25,2.25,0,0,1,2.27,2.24v1.52a5.68,5.68,0,0,1-.76,2.85l-3.52,6.06a3.94,3.94,0,0,1-3.42,2H302.4a4.05,4.05,0,0,1-3.49-2l-3.47-6a5.79,5.79,0,0,1-.77-2.87V216.86a5.71,5.71,0,0,1,.76-2.85Z"/><path class="cls-2" d="M87.48,218.09,52.63,286.64a3.29,3.29,0,0,1-3,1.79H38.19a3.31,3.31,0,0,1-2.94-1.79L.42,218.09a3.8,3.8,0,0,1,.08-3.63L4.23,208a4,4,0,0,1,3.48-2H11.1a2.32,2.32,0,0,1,2.08,1.29l29.28,58.25a1.66,1.66,0,0,0,3,0L74.7,207.3A2.3,2.3,0,0,1,76.79,206h3.37a4,4,0,0,1,3.49,2l3.73,6.46a3.76,3.76,0,0,1,.1,3.61"/><path class="cls-2" d="M360.34,206v.47h1.22v2.94h.55v-2.94h1.19V206Zm6.54,0-1.15,2.67h0L364.55,206h-.76v3.41h.55l0-2.65h0l1.14,2.65h.46l1.15-2.65h0l0,2.65h.56V206Z"/></g></g></svg>