<svg xmlns="http://www.w3.org/2000/svg" xmlns:xlink="http://www.w3.org/1999/xlink" viewBox="0 0 340.16 85.61"><defs><style>.cls-1{fill:url(#radial-gradient);}.cls-2{fill:url(#radial-gradient-2);}.cls-3{fill:url(#radial-gradient-3);}.cls-4{fill:url(#radial-gradient-4);}.cls-5{fill:url(#radial-gradient-5);}.cls-6{fill:url(#radial-gradient-6);}.cls-7{fill:url(#radial-gradient-7);}.cls-8{fill:url(#radial-gradient-8);}.cls-9{fill:url(#radial-gradient-9);}.cls-10{fill:url(#radial-gradient-10);}.cls-11{fill:url(#radial-gradient-11);}.cls-12{fill:url(#radial-gradient-12);}.cls-13{fill:url(#radial-gradient-13);}.cls-14{fill:url(#radial-gradient-14);}.cls-15{fill:url(#radial-gradient-15);}.cls-16{fill:url(#radial-gradient-16);}.cls-17{fill:url(#radial-gradient-17);}.cls-18{fill:url(#radial-gradient-18);}.cls-19{fill:url(#radial-gradient-19);}.cls-20{fill:url(#radial-gradient-20);}.cls-21{fill:url(#radial-gradient-21);}.cls-22{fill:url(#radial-gradient-22);}.cls-23{fill:url(#radial-gradient-23);}.cls-24{fill:url(#radial-gradient-24);}.cls-25{fill:url(#radial-gradient-25);}.cls-26{fill:url(#radial-gradient-26);}.cls-27{fill:url(#radial-gradient-27);}.cls-28{fill:url(#radial-gradient-28);}.cls-29{fill:url(#radial-gradient-29);}.cls-30{fill:url(#radial-gradient-30);}.cls-31{fill:url(#radial-gradient-31);}.cls-32{fill:url(#radial-gradient-32);}.cls-33{fill:url(#radial-gradient-33);}.cls-34{fill:url(#radial-gradient-34);}.cls-35{fill:url(#radial-gradient-35);}.cls-36{fill:url(#radial-gradient-36);}.cls-37{fill:url(#radial-gradient-37);}.cls-38{fill:url(#radial-gradient-38);}</style><radialGradient id="radial-gradient" cx="27.81" cy="42.38" r="168.65" gradientUnits="userSpaceOnUse"><stop offset="0" stop-color="#ed1c29"/><stop offset="0.64" stop-color="#6f368e"/><stop offset="1" stop-color="#6f368e"/></radialGradient><radialGradient id="radial-gradient-2" cx="27.75" cy="42.38" r="168.72" xlink:href="#radial-gradient"/><radialGradient id="radial-gradient-3" cx="27.77" cy="42.38" r="168.7" xlink:href="#radial-gradient"/><radialGradient id="radial-gradient-4" cx="27.76" cy="42.39" r="168.71" xlink:href="#radial-gradient"/><radialGradient id="radial-gradient-5" cx="27.87" cy="42.39" r="168.62" xlink:href="#radial-gradient"/><radialGradient id="radial-gradient-6" cx="27.77" cy="42.39" r="168.7" xlink:href="#radial-gradient"/><radialGradient id="radial-gradient-7" cx="27.76" cy="42.38" r="168.71" xlink:href="#radial-gradient"/><radialGradient id="radial-gradient-8" cx="27.78" cy="42.38" r="168.69" xlink:href="#radial-gradient"/><radialGradient id="radial-gradient-9" cx="27.78" cy="42.38" r="168.69" xlink:href="#radial-gradient"/><radialGradient id="radial-gradient-10" cx="27.82" cy="42.38" r="168.65" xlink:href="#radial-gradient"/><radialGradient id="radial-gradient-11" cx="27.76" cy="42.38" r="168.71" xlink:href="#radial-gradient"/><radialGradient id="radial-gradient-12" cx="27.92" cy="42.38" r="168.57" xlink:href="#radial-gradient"/><radialGradient id="radial-gradient-13" cx="27.76" cy="42.38" r="168.7" xlink:href="#radial-gradient"/><radialGradient id="radial-gradient-14" cx="27.8" cy="42.39" r="168.67" xlink:href="#radial-gradient"/><radialGradient id="radial-gradient-15" cx="27.74" cy="42.39" r="168.73" xlink:href="#radial-gradient"/><radialGradient id="radial-gradient-16" cx="27.76" cy="42.39" r="168.71" xlink:href="#radial-gradient"/><radialGradient id="radial-gradient-17" cx="27.77" cy="42.39" r="168.7" xlink:href="#radial-gradient"/><radialGradient id="radial-gradient-18" cx="27.73" cy="42.39" r="168.73" xlink:href="#radial-gradient"/><radialGradient id="radial-gradient-19" cx="27.74" cy="42.39" r="168.72" xlink:href="#radial-gradient"/><radialGradient id="radial-gradient-20" cx="27.8" cy="42.39" r="168.68" xlink:href="#radial-gradient"/><radialGradient id="radial-gradient-21" cx="27.76" cy="42.39" r="168.71" xlink:href="#radial-gradient"/><radialGradient id="radial-gradient-22" cx="27.72" cy="42.39" r="168.73" xlink:href="#radial-gradient"/><radialGradient id="radial-gradient-23" cx="27.75" cy="42.39" r="168.71" xlink:href="#radial-gradient"/><radialGradient id="radial-gradient-24" cx="27.72" cy="42.39" r="168.73" xlink:href="#radial-gradient"/><radialGradient id="radial-gradient-25" cx="27.8" cy="42.38" r="168.68" xlink:href="#radial-gradient"/><radialGradient id="radial-gradient-26" cx="27.76" cy="42.38" r="168.71" xlink:href="#radial-gradient"/><radialGradient id="radial-gradient-27" cx="27.79" cy="42.38" r="168.68" xlink:href="#radial-gradient"/><radialGradient id="radial-gradient-28" cx="27.8" cy="42.38" r="168.67" xlink:href="#radial-gradient"/><radialGradient id="radial-gradient-29" cx="27.76" cy="42.38" r="168.71" xlink:href="#radial-gradient"/><radialGradient id="radial-gradient-30" cx="27.82" cy="42.38" r="168.66" xlink:href="#radial-gradient"/><radialGradient id="radial-gradient-31" cx="27.85" cy="42.38" r="168.65" xlink:href="#radial-gradient"/><radialGradient id="radial-gradient-32" cx="27.76" cy="42.38" r="168.7" xlink:href="#radial-gradient"/><radialGradient id="radial-gradient-33" cx="27.8" cy="42.38" r="168.69" xlink:href="#radial-gradient"/><radialGradient id="radial-gradient-34" cx="27.77" cy="42.39" r="168.69" xlink:href="#radial-gradient"/><radialGradient id="radial-gradient-35" cx="27.77" cy="42.39" r="168.69" xlink:href="#radial-gradient"/><radialGradient id="radial-gradient-36" cx="27.76" cy="42.38" r="168.71" xlink:href="#radial-gradient"/><radialGradient id="radial-gradient-37" cx="27.77" cy="42.38" r="168.7" xlink:href="#radial-gradient"/><radialGradient id="radial-gradient-38" cx="27.77" cy="42.39" r="168.71" xlink:href="#radial-gradient"/></defs><title>Asset 1</title><g id="Layer_2" data-name="Layer 2"><g id="Layer_1-2" data-name="Layer 1"><path class="cls-1" d="M154.82,17.8V.47H159V17.8Z"/><path class="cls-2" d="M173.79,17.8l-7-11.34h-.08l.11,11.34h-4.07V.47h4.77l7,11.32h.07L174.47.47h4.07V17.8Z"/><path class="cls-3" d="M186.66,4V7.62h6.71v3.45h-6.71V17.8h-4.13V.47h11.41V4Z"/><path class="cls-4" d="M214.51,9.06a9.73,9.73,0,0,1-.71,3.76,8.33,8.33,0,0,1-2,2.91,8.73,8.73,0,0,1-3,1.88,10.56,10.56,0,0,1-3.77.66,10.42,10.42,0,0,1-3.76-.66,8.88,8.88,0,0,1-3-1.88,8.61,8.61,0,0,1-2-2.91,9.73,9.73,0,0,1-.71-3.76,9.62,9.62,0,0,1,.71-3.76,8.36,8.36,0,0,1,2-2.85,8.9,8.9,0,0,1,3-1.82A10.87,10.87,0,0,1,205.06,0a11,11,0,0,1,3.77.63,8.75,8.75,0,0,1,3,1.82,8.09,8.09,0,0,1,2,2.85A9.62,9.62,0,0,1,214.51,9.06Zm-4.48,0a5.8,5.8,0,0,0-.37-2.1,5,5,0,0,0-1-1.69,4.86,4.86,0,0,0-1.57-1.09,4.8,4.8,0,0,0-2-.41,4.72,4.72,0,0,0-2,.41,5,5,0,0,0-1.57,1.09,4.7,4.7,0,0,0-1,1.69,6,6,0,0,0-.36,2.1,6.33,6.33,0,0,0,.37,2.17,4.91,4.91,0,0,0,1,1.7A4.41,4.41,0,0,0,203.05,14a5.13,5.13,0,0,0,4,0,4.68,4.68,0,0,0,1.57-1.11,5.07,5.07,0,0,0,1-1.7A6.1,6.1,0,0,0,210,9.06Z"/><path class="cls-5" d="M229.79,17.5a9.38,9.38,0,0,1-3.89.77,10.21,10.21,0,0,1-3.72-.66,8.71,8.71,0,0,1-3-1.88,8.54,8.54,0,0,1-2-2.9,9.56,9.56,0,0,1-.7-3.72,9.7,9.7,0,0,1,.71-3.77,8.46,8.46,0,0,1,2-2.88,8.92,8.92,0,0,1,3-1.83A10.61,10.61,0,0,1,226,0a10.23,10.23,0,0,1,3.61.65,7,7,0,0,1,2.88,1.89l-2.84,2.85a3.55,3.55,0,0,0-1.55-1.2,5.11,5.11,0,0,0-2-.39,4.88,4.88,0,0,0-2,.4,4.73,4.73,0,0,0-1.59,1.12,5.34,5.34,0,0,0-1,1.67,6,6,0,0,0-.36,2.12,6.18,6.18,0,0,0,.36,2.15,5.19,5.19,0,0,0,1,1.69A4.71,4.71,0,0,0,224.06,14a4.93,4.93,0,0,0,2,.39,4.58,4.58,0,0,0,2.18-.5,4,4,0,0,0,1.49-1.27l2.91,2.74A8.09,8.09,0,0,1,229.79,17.5Z"/><path class="cls-6" d="M252.29,9.06a9.73,9.73,0,0,1-.71,3.76,8.52,8.52,0,0,1-5,4.79,11.07,11.07,0,0,1-7.53,0,8.56,8.56,0,0,1-5-4.79,9.72,9.72,0,0,1-.7-3.76,9.62,9.62,0,0,1,.7-3.76,8.5,8.5,0,0,1,2-2.85,8.8,8.8,0,0,1,3-1.82,11.57,11.57,0,0,1,7.53,0,8.79,8.79,0,0,1,3,1.82,8.5,8.5,0,0,1,2,2.85A9.62,9.62,0,0,1,252.29,9.06Zm-4.49,0a6,6,0,0,0-.36-2.1,5.19,5.19,0,0,0-1-1.69,5.07,5.07,0,0,0-5.6-1.09,4.93,4.93,0,0,0-1.56,1.09,4.87,4.87,0,0,0-1,1.69,6.25,6.25,0,0,0-.35,2.1,6.33,6.33,0,0,0,.36,2.17,5.24,5.24,0,0,0,1,1.7A4.5,4.5,0,0,0,240.82,14a5.13,5.13,0,0,0,4,0,4.58,4.58,0,0,0,1.57-1.11,5.09,5.09,0,0,0,1-1.7A6.33,6.33,0,0,0,247.8,9.06Z"/><path class="cls-7" d="M270.3,17.8l.1-12.27h-.08l-4.5,12.27h-2.95L258.49,5.53h-.07l.1,12.27h-3.95V.47h6l4,11.11h.1L268.36.47h6.05V17.8Z"/><path class="cls-8" d="M293.92,17.8,294,5.53h-.07L289.43,17.8H286.5L282.11,5.53H282l.1,12.27h-3.95V.47h6l4,11.11h.1L292,.47H298V17.8Z"/><path class="cls-9" d="M170.55,40.25,170.64,28h-.07l-4.51,12.27h-2.94L158.74,28h-.07l.09,12.27h-3.94V22.91h6L164.73,34h.1l3.78-11.12h6V40.25Z"/><path class="cls-10" d="M177.78,40.25V22.91h11.65v3.53h-7.62v3.28H189v3.35h-7.21v3.6h8.06v3.58Z"/><path class="cls-11" d="M208.63,31.53a8.57,8.57,0,0,1-.84,3.93,8.06,8.06,0,0,1-2.23,2.72,9.29,9.29,0,0,1-3.13,1.56,12.39,12.39,0,0,1-3.52.51h-6.47V22.91h6.27a15.33,15.33,0,0,1,3.63.43,9,9,0,0,1,3.18,1.42,7.26,7.26,0,0,1,2.25,2.66A8.77,8.77,0,0,1,208.63,31.53Zm-4.36,0a5.42,5.42,0,0,0-.48-2.43,4.15,4.15,0,0,0-1.27-1.55,5,5,0,0,0-1.81-.81,8.68,8.68,0,0,0-2.1-.25h-2.08V36.63h2a9,9,0,0,0,2.17-.26,5.34,5.34,0,0,0,1.84-.84A4.3,4.3,0,0,0,203.79,34,5.51,5.51,0,0,0,204.27,31.53Z"/><path class="cls-12" d="M210.87,40.25V22.91h4.21V40.25Z"/><path class="cls-13" d="M230.87,40.25l-1.35-3.41h-6.71l-1.27,3.41H217l7.28-17.34h4.06l7.2,17.34Zm-4.66-12.71-2.2,6h4.36Z"/><path class="cls-14" d="M171,54a8.57,8.57,0,0,1-.84,3.93,8.06,8.06,0,0,1-2.23,2.72,9.34,9.34,0,0,1-3.12,1.56,12.51,12.51,0,0,1-3.53.51h-6.47V45.36h6.27a15.39,15.39,0,0,1,3.63.43,9.19,9.19,0,0,1,3.18,1.42,7.18,7.18,0,0,1,2.25,2.66A8.9,8.9,0,0,1,171,54Zm-4.37,0a5.5,5.5,0,0,0-.47-2.44A4,4,0,0,0,164.9,50a4.9,4.9,0,0,0-1.81-.82,9.12,9.12,0,0,0-2.09-.25h-2.09V59.07h2a9,9,0,0,0,2.16-.25A5.1,5.1,0,0,0,164.9,58a4,4,0,0,0,1.27-1.57A5.47,5.47,0,0,0,166.64,54Z"/><path class="cls-15" d="M173.44,62.7V45.36H185.1v3.53h-7.61v3.28h7.19v3.35h-7.19v3.6h8V62.7Z"/><path class="cls-16" d="M197.85,62.7h-4.19l-6.57-17.34h4.71l4,12.29h.1l4-12.29h4.62Z"/><path class="cls-17" d="M206.63,62.7V45.36h11.66v3.53h-7.62v3.28h7.2v3.35h-7.2v3.6h8.06V62.7Z"/><path class="cls-18" d="M221.46,62.7V45.36h4.21V59.05h6.71V62.7Z"/><path class="cls-19" d="M252.62,54a9.78,9.78,0,0,1-.71,3.77,8.68,8.68,0,0,1-2,2.91,8.85,8.85,0,0,1-3,1.87,10.56,10.56,0,0,1-3.77.66,10.42,10.42,0,0,1-3.76-.66,8.51,8.51,0,0,1-5-4.78,9.78,9.78,0,0,1-.71-3.77,9.6,9.6,0,0,1,.71-3.75,8.4,8.4,0,0,1,2-2.86,8.78,8.78,0,0,1,3-1.81,10.64,10.64,0,0,1,3.76-.63,10.77,10.77,0,0,1,3.77.63,8.87,8.87,0,0,1,3,1.81,8.38,8.38,0,0,1,2,2.86A9.6,9.6,0,0,1,252.62,54Zm-4.48,0a6.11,6.11,0,0,0-.36-2.11,5.31,5.31,0,0,0-1-1.67,4.89,4.89,0,0,0-1.57-1.1,4.8,4.8,0,0,0-2-.4,4.72,4.72,0,0,0-2,.4,4.84,4.84,0,0,0-1.56,1.1,4.67,4.67,0,0,0-1,1.67,6.11,6.11,0,0,0-.36,2.11,6.29,6.29,0,0,0,.37,2.17,5,5,0,0,0,1,1.7,4.57,4.57,0,0,0,1.55,1.12,5.25,5.25,0,0,0,4,0,4.85,4.85,0,0,0,1.57-1.12,5.16,5.16,0,0,0,1-1.7A6.29,6.29,0,0,0,248.14,54Z"/><path class="cls-20" d="M268.18,50.7a5.34,5.34,0,0,1-.56,2.55,4.57,4.57,0,0,1-1.52,1.68,6.77,6.77,0,0,1-2.21.94,11.62,11.62,0,0,1-2.59.29h-2.09V62.7H255V45.36h6.37a11.77,11.77,0,0,1,2.65.28,6.29,6.29,0,0,1,2.16.91,4.44,4.44,0,0,1,1.44,1.63A5.46,5.46,0,0,1,268.18,50.7Zm-4.19,0a1.9,1.9,0,0,0-.24-1,1.64,1.64,0,0,0-.67-.61,2.53,2.53,0,0,0-.94-.29,6.43,6.43,0,0,0-1.09-.08h-1.84v4.09H261a6,6,0,0,0,1.14-.1,3.32,3.32,0,0,0,1-.34,1.93,1.93,0,0,0,.68-.65A2,2,0,0,0,264,50.72Z"/><path class="cls-21" d="M285.73,62.7l.11-12.27h-.08l-4.5,12.27h-2.94l-4.38-12.27h-.08L274,62.7H270V45.36h6l3.94,11.12h.1l3.77-11.12h6.07V62.7Z"/><path class="cls-22" d="M293.53,62.7V45.36h11.66v3.53h-7.62v3.28h7.21v3.35h-7.21v3.6h8.06V62.7Z"/><path class="cls-23" d="M319.38,62.7l-7-11.34h-.08l.1,11.34h-4.06V45.36h4.77l6.95,11.31h.08l-.1-11.31h4.06V62.7Z"/><path class="cls-24" d="M335.26,48.93V62.7h-4.19V48.93h-4.9V45.36h14v3.57Z"/><path class="cls-25" d="M168.73,85.15l-1.35-3.41h-6.71l-1.28,3.41h-4.55l7.27-17.35h4.07l7.2,17.35Zm-4.66-12.72-2.2,6h4.36Z"/><path class="cls-26" d="M188.37,81.46a6.05,6.05,0,0,1-1.51,2.2,6.93,6.93,0,0,1-2.36,1.44,9.56,9.56,0,0,1-6.16,0A6.66,6.66,0,0,1,176,83.66a6.08,6.08,0,0,1-1.47-2.2,7.49,7.49,0,0,1-.52-2.85V67.8h4.16V78.26a4.89,4.89,0,0,0,.19,1.35,3.47,3.47,0,0,0,.56,1.14,2.57,2.57,0,0,0,1,.79,3.43,3.43,0,0,0,1.5.3,3.48,3.48,0,0,0,1.51-.3,2.75,2.75,0,0,0,1-.79,3.28,3.28,0,0,0,.56-1.14,5.31,5.31,0,0,0,.17-1.35V67.8h4.19V78.61A7.49,7.49,0,0,1,188.37,81.46Z"/><path class="cls-27" d="M200,71.38V85.15h-4.19V71.38h-4.9V67.8h14v3.58Z"/><path class="cls-28" d="M217.71,85.15V77.89H211v7.26h-4.19V67.8H211v6.57h6.76V67.8h4.18V85.15Z"/><path class="cls-29" d="M242.79,76.4a9.51,9.51,0,0,1-.71,3.76,8.51,8.51,0,0,1-2,2.92,9,9,0,0,1-3,1.87,10.78,10.78,0,0,1-3.77.66,10.64,10.64,0,0,1-3.76-.66,8.91,8.91,0,0,1-3-1.87,8.51,8.51,0,0,1-2-2.92,10.31,10.31,0,0,1,0-7.52,8.13,8.13,0,0,1,2-2.85,8.62,8.62,0,0,1,3-1.81,10.64,10.64,0,0,1,3.76-.64,10.78,10.78,0,0,1,3.77.64,8.67,8.67,0,0,1,3,1.81,8.13,8.13,0,0,1,2,2.85A9.44,9.44,0,0,1,242.79,76.4Zm-4.48,0a5.89,5.89,0,0,0-.37-2.11,4.92,4.92,0,0,0-1-1.68,4.65,4.65,0,0,0-1.57-1.09,4.84,4.84,0,0,0-6.61,2.77,6.35,6.35,0,0,0-.35,2.11,6.1,6.1,0,0,0,.37,2.17,4.91,4.91,0,0,0,1,1.7,4.47,4.47,0,0,0,1.55,1.12,5.23,5.23,0,0,0,4,0,4.65,4.65,0,0,0,1.57-1.12,4.93,4.93,0,0,0,1-1.7A6.1,6.1,0,0,0,238.31,76.4Z"/><path class="cls-30" d="M254.33,85.15l-3.77-6.89h-1.42v6.89h-4.09V67.8h6.61a12.32,12.32,0,0,1,2.44.26,6.5,6.5,0,0,1,2.13.87,4.61,4.61,0,0,1,1.51,1.62,5.11,5.11,0,0,1,.56,2.5,4.59,4.59,0,0,1-1,3,5.13,5.13,0,0,1-2.64,1.71l4.53,7.43Zm-.17-12a1.66,1.66,0,0,0-.26-1,1.78,1.78,0,0,0-.66-.59,3.24,3.24,0,0,0-.91-.29,8.37,8.37,0,0,0-1-.07h-2.23v4h2a6.62,6.62,0,0,0,1.07-.09,3.41,3.41,0,0,0,1-.31,1.75,1.75,0,0,0,.72-.63A1.86,1.86,0,0,0,254.16,73.12Z"/><path class="cls-31" d="M261.29,85.15V67.8h4.21V85.15Z"/><path class="cls-32" d="M276.5,71.38V85.15h-4.19V71.38h-4.9V67.8h14v3.58Z"/><path class="cls-33" d="M293.43,77.79v7.36h-4.18V77.79l-6.52-10h5.07l3.7,6.42,3.69-6.42h4.91Z"/><path class="cls-34" d="M39.93,75.29V10.56L58.65.46V85.15Z"/><path class="cls-35" d="M0,85.15V.46l18.72,10.1V75.29Z"/><polygon class="cls-36" points="101.54 85.14 79.85 85.14 79.85 30.75 101.54 85.14"/><polygon class="cls-37" points="111.84 85.14 133.53 85.14 133.53 30.75 111.84 85.14"/><polygon class="cls-38" points="87.78 0.48 125.6 0.48 106.69 42.76 87.78 0.48"/></g></g></svg>